<?xml version="1.0" encoding="iso-8859-1"?>
<!-- Generator: Adobe Illustrator 19.0.0, SVG Export Plug-In . SVG Version: 6.00 Build 0)  -->
<svg version="1.1" id="Capa_1" xmlns="http://www.w3.org/2000/svg" xmlns:xlink="http://www.w3.org/1999/xlink" x="0px" y="0px"
	 viewBox="0 0 512 512" style="enable-background:new 0 0 512 512;" xml:space="preserve">
<path style="fill:#FF8859;" d="M502,256c0-135.862-110.138-246-246-246S10,120.138,10,256s110.138,246,246,246S502,391.862,502,256z
	"/>
<path d="M256,512c-68.38,0-132.667-26.628-181.02-74.981C26.629,388.667,0,324.38,0,256S26.629,123.333,74.98,74.981
	C123.333,26.628,187.62,0,256,0s132.667,26.628,181.02,74.981C485.371,123.333,512,187.62,512,256s-26.629,132.667-74.98,181.019
	C388.667,485.372,324.38,512,256,512z M256,20C125.869,20,20,125.869,20,256s105.869,236,236,236s236-105.869,236-236
	S386.131,20,256,20z"/>
<path style="fill:#EECCB0;" d="M256,463.463c-21.176,0-38.174-24.827-57.299-31.055c-19.8-6.448-48.111,3.39-64.606-8.626
	c-16.652-12.13-15.964-42.178-28.094-58.83c-12.016-16.495-40.879-25.04-47.327-44.84C52.445,300.987,70.537,277.176,70.537,256
	s-18.092-44.986-11.864-64.111c6.448-19.8,35.311-28.346,47.327-44.84c12.13-16.652,11.443-46.7,28.094-58.83
	c16.495-12.016,44.806-2.178,64.606-8.626c19.125-6.228,36.124-31.055,57.3-31.055s38.174,24.827,57.299,31.055
	c19.8,6.448,48.111-3.39,64.606,8.626c16.652,12.13,15.964,42.178,28.094,58.83c12.016,16.494,40.879,25.04,47.327,44.84
	c6.228,19.125-11.864,42.936-11.864,64.112s18.092,44.986,11.864,64.112c-6.448,19.8-35.311,28.346-47.327,44.84
	c-12.13,16.652-11.443,46.7-28.094,58.83c-16.495,12.016-44.806,2.178-64.606,8.626C294.174,438.636,277.176,463.463,256,463.463z"
	/>
<path d="M256,473.463c-15.7,0-28.612-9.93-40.003-18.691c-7.206-5.543-14.013-10.777-20.394-12.855
	c-6.842-2.228-15.729-2.036-25.13-1.832c-14.79,0.319-30.088,0.652-42.268-8.221c-12.291-8.954-16.886-24.342-20.938-37.919
	c-2.672-8.949-5.196-17.402-9.351-23.105c-4.07-5.587-11.266-10.525-18.883-15.753c-11.764-8.072-25.097-17.222-29.87-31.878
	c-4.589-14.094,0.412-28.41,5.249-42.253c3.149-9.014,6.124-17.528,6.124-24.955c0-7.427-2.975-15.941-6.124-24.955
	c-4.837-13.844-9.838-28.159-5.249-42.252c4.773-14.657,18.106-23.807,29.87-31.879c7.617-5.228,14.813-10.165,18.883-15.753
	c4.155-5.704,6.679-14.157,9.351-23.106c4.054-13.577,8.647-28.965,20.939-37.919c12.179-8.871,27.477-8.542,42.267-8.22
	c9.404,0.203,18.288,0.396,25.13-1.832c6.381-2.078,13.186-7.313,20.393-12.855C227.388,48.468,240.3,38.537,256,38.537
	s28.612,9.93,40.003,18.691c7.206,5.542,14.013,10.777,20.394,12.854c6.842,2.229,15.725,2.038,25.131,1.832
	c14.791-0.32,30.087-0.652,42.266,8.221c12.292,8.954,16.887,24.342,20.939,37.919c2.672,8.949,5.196,17.402,9.351,23.105
	c4.07,5.587,11.266,10.525,18.883,15.752c11.764,8.072,25.097,17.222,29.87,31.878c4.589,14.094-0.412,28.41-5.249,42.253
	c-3.149,9.014-6.124,17.528-6.124,24.955c0,7.427,2.975,15.941,6.124,24.955c4.837,13.844,9.838,28.159,5.249,42.252
	c-4.773,14.657-18.106,23.807-29.87,31.879c-7.617,5.228-14.813,10.165-18.883,15.753c-4.155,5.704-6.679,14.157-9.351,23.106
	c-4.054,13.577-8.647,28.965-20.939,37.919c-12.179,8.872-27.477,8.539-42.267,8.22c-9.409-0.204-18.29-0.396-25.13,1.832
	c-6.381,2.078-13.187,7.313-20.393,12.854C284.612,463.532,271.7,473.463,256,473.463z M178.346,419.97
	c7.983,0,15.979,0.497,23.451,2.93c9.652,3.143,18.162,9.689,26.393,16.018c9.725,7.48,18.912,14.545,27.811,14.545
	c8.899,0,18.085-7.065,27.81-14.545c8.23-6.33,16.74-12.875,26.393-16.019c10.071-3.279,21.093-3.041,31.756-2.81
	c12.002,0.26,23.337,0.505,30.058-4.39c6.835-4.979,10.098-15.906,13.552-27.475c3.036-10.17,6.176-20.687,12.349-29.161
	c6.091-8.36,15.06-14.515,23.732-20.467c10.027-6.881,19.498-13.381,22.169-21.582c2.5-7.676-1.198-18.258-5.112-29.463
	c-3.561-10.192-7.243-20.731-7.243-31.552c0-10.821,3.682-21.36,7.243-31.552c3.914-11.204,7.612-21.788,5.112-29.464
	c-2.671-8.2-12.142-14.7-22.169-21.581c-8.673-5.952-17.642-12.106-23.732-20.467c-6.172-8.474-9.311-18.99-12.349-29.16
	c-3.454-11.569-6.716-22.497-13.551-27.476c-6.722-4.896-18.06-4.651-30.058-4.391c-10.659,0.231-21.685,0.47-31.757-2.811
	c-9.652-3.143-18.162-9.688-26.393-16.018c-9.725-7.48-18.912-14.545-27.81-14.545c-8.899,0-18.085,7.065-27.811,14.545
	c-8.23,6.33-16.74,12.875-26.393,16.019c-10.072,3.279-21.098,3.04-31.756,2.809c-12.006-0.259-23.338-0.505-30.059,4.39
	c-6.834,4.979-10.097,15.906-13.551,27.475c-3.036,10.17-6.176,20.687-12.349,29.161c-6.091,8.36-15.06,14.515-23.732,20.467
	c-10.027,6.881-19.498,13.381-22.169,21.582c-2.5,7.676,1.198,18.258,5.112,29.463c3.561,10.192,7.243,20.731,7.243,31.552
	s-3.682,21.36-7.243,31.552c-3.914,11.204-7.612,21.788-5.112,29.464c2.671,8.2,12.142,14.7,22.169,21.581
	c8.673,5.952,17.642,12.106,23.732,20.467c6.172,8.474,9.312,18.99,12.349,29.16c3.454,11.569,6.716,22.497,13.551,27.476
	c6.722,4.896,18.055,4.65,30.058,4.391C172.792,420.03,175.568,419.97,178.346,419.97z"/>
<path d="M271.483,406.979c-5.522,0-10-4.477-10-10s4.478-10,10-10c49.819,0,93.874-31.79,109.624-79.105
	c1.744-5.239,7.406-8.073,12.647-6.33c5.24,1.745,8.074,7.407,6.33,12.647C381.609,369.69,329.929,406.979,271.483,406.979z"/>
<path d="M396.979,281.484h-0.143c-5.522,0-10-4.477-10-10s4.478-10,10-10h0.143c5.523,0,10,4.477,10,10
	C406.979,277.007,402.502,281.484,396.979,281.484z"/>
<path style="fill:#D04E42;" d="M203.782,219.17c-20.293-20.501-53.365-20.565-73.738-0.192c-1.51,1.51-2.908,3.09-4.193,4.73
	c-3.907,4.985-3.496,12.096,0.982,16.575l16.042,16.042c-9.201,5.315-23.401,13.603-29.395,17.529
	c-3.76,2.462-4.612,7.729-1.641,10.631l26.244,25.999c2.913,2.913,8.171,2.357,10.632-1.396
	c3.928-5.992,12.214-20.194,17.529-29.395l16.042,16.042c4.48,4.48,11.593,4.887,16.579,0.978c1.942-1.522,3.801-3.203,5.558-5.041
	C223.799,271.408,223.506,239.096,203.782,219.17z"/>
<path d="M142.682,322.341c-4.401,0-8.578-1.695-11.669-4.784l-26.212-25.968c-3.435-3.355-5.155-8.161-4.671-13.137
	c0.508-5.223,3.451-10.07,7.872-12.965c3.993-2.615,11.217-6.935,18.618-11.276l-6.858-6.858c-8.038-8.037-8.804-20.854-1.78-29.814
	c1.54-1.965,3.22-3.86,4.991-5.632c11.754-11.753,27.346-18.189,44.002-18.161c16.622,0.042,32.218,6.573,43.914,18.389h0.001
	c11.382,11.499,17.729,26.794,17.875,43.07c0.146,16.279-5.933,31.684-17.113,43.378c-2.063,2.158-4.29,4.177-6.618,6.002
	c-8.96,7.023-21.78,6.261-29.818-1.779l-6.857-6.857c-4.356,7.428-8.686,14.667-11.28,18.623c-2.85,4.347-7.451,7.145-12.624,7.678
	C143.86,322.311,143.269,322.341,142.682,322.341z M145.098,303.357l0.023,0.023C145.113,303.373,145.105,303.365,145.098,303.357z
	 M121.884,280.36l20.397,20.207c3.289-5.294,8.594-14.26,15.304-25.876c1.555-2.692,4.273-4.507,7.355-4.913
	c3.071-0.404,6.176,0.645,8.375,2.843l16.042,16.042c0.893,0.894,2.328,0.971,3.339,0.179c1.581-1.239,3.095-2.612,4.5-4.082
	c15.561-16.276,15.328-42.545-0.521-58.556c-7.925-8.006-18.49-12.431-29.75-12.459c-0.037,0-0.073,0-0.11,0
	c-11.22,0-21.763,4.366-29.699,12.303c-1.205,1.206-2.347,2.494-3.394,3.828c-0.789,1.007-0.711,2.441,0.182,3.334l16.043,16.043
	c2.198,2.198,3.249,5.293,2.844,8.375c-0.406,3.082-2.222,5.8-4.913,7.355C140.776,269.085,128.864,276.018,121.884,280.36z
	 M118.827,277.332l0.04,0.04C118.854,277.358,118.841,277.345,118.827,277.332z"/>
<path style="fill:#FFD15C;" d="M260.07,102.231c-35.01,0-63.391,28.381-63.391,63.391H323.46
	C323.46,130.612,295.079,102.231,260.07,102.231z"/>
<path d="M323.46,175.622H196.679c-5.522,0-10-4.477-10-10c0-40.468,32.923-73.391,73.391-73.391s73.391,32.923,73.391,73.391
	C333.46,171.145,328.982,175.622,323.46,175.622z M207.618,155.622H312.52c-4.695-24.676-26.429-43.391-52.451-43.391
	C234.047,112.231,212.314,130.946,207.618,155.622z"/>
<path style="fill:#FF5F5F;" d="M271.484,226.322v125.089c34.543,0,62.545-28.002,62.545-62.545
	C334.028,254.324,306.026,226.322,271.484,226.322z"/>
<path d="M271.483,361.412c-5.522,0-10-4.477-10-10v-125.09c0-5.523,4.478-10,10-10c40.001,0,72.545,32.543,72.545,72.544
	C344.028,328.868,311.484,361.412,271.483,361.412z M281.483,237.277v103.18c24.208-4.683,42.545-26.035,42.545-51.59
	S305.691,241.96,281.483,237.277z"/>
<circle style="fill:#D04E42;" cx="378.9" cy="214.09" r="27"/>
<path d="M378.898,251.088c-20.402,0-37-16.598-37-37s16.598-37,37-37s37,16.598,37,37S399.301,251.088,378.898,251.088z
	 M378.898,197.088c-9.374,0-17,7.626-17,17s7.626,17,17,17s17-7.626,17-17S388.272,197.088,378.898,197.088z"/>
<circle style="fill:#FFD15C;" cx="200.18" cy="374.43" r="27"/>
<path d="M200.178,411.425c-20.402,0-37-16.598-37-37s16.598-37,37-37s37,16.598,37,37S220.58,411.425,200.178,411.425z
	 M200.178,357.425c-9.374,0-17,7.626-17,17s7.626,17,17,17s17-7.626,17-17S209.552,357.425,200.178,357.425z"/>
<g>
</g>
<g>
</g>
<g>
</g>
<g>
</g>
<g>
</g>
<g>
</g>
<g>
</g>
<g>
</g>
<g>
</g>
<g>
</g>
<g>
</g>
<g>
</g>
<g>
</g>
<g>
</g>
<g>
</g>
</svg>
